<svg version="1.0" xmlns="http://www.w3.org/2000/svg" width="128.000000pt" height="128.000000pt" viewBox="0 0 128.000000 128.000000" preserveAspectRatio="xMidYMid meet">

<g transform="translate(0.000000,128.000000) scale(0.100000,-0.100000)" fill="#5d7285" stroke="none">
<path d="M273 1203 c-7 -2 -13 -19 -13 -38 0 -32 -1 -33 -51 -37 -59 -6 -97 -31 -121 -79 -16 -31 -18 -72 -18 -423 0 -376 1 -389 21 -426 39 -69 59 -75 280 -78 171 -3 198 -1 213 13 20 20 20 29 0 49 -13 13 -46 16 -209 16 l-194 0 -20 26 c-20 25 -21 39 -21 280 l0 254 500 0 500 0 0 -70 c0 -56 3 -71 18 -79 11 -6 24 -6 35 0 15 9 17 31 17 207 0 168 -3 202 -18 231 -24 48 -62 73 -121 79 -50 4 -51 5 -51 38 0 24 -5 34 -20 39 -28 9 -50 -11 -50 -46 l0 -29 -135 0 c-130 0 -135 1 -135 21 0 31 -19 59 -40 59 -21 0 -40 -28 -40 -59 0 -20 -5 -21 -135 -21 l-135 0 0 28 c0 42 -23 59 -57 45z m-13 -183 c4 -31 8 -35 35 -35 27 0 30 3 33 38 l3 37 134 0 134 0 3 -31 c6 -64 70 -64 76 0 l3 31 134 0 134 0 3 -37 c3 -35 6 -38 33 -38 27 0 31 4 35 35 6 40 26 48 69 30 39 -16 51 -48 51 -135 l0 -75 -500 0 -500 0 0 75 c0 111 22 146 90 142 21 -2 26 -8 30 -37z" fill="#5d7285"/>
<path d="M826 634 c-71 -22 -159 -112 -180 -184 -34 -115 -12 -206 73 -291 85 -85 176 -107 291 -73 75 22 162 109 184 184 34 115 12 206 -73 291 -85 84 -180 108 -295 73z m187 -80 c78 -39 121 -109 121 -194 0 -121 -93 -214 -214 -214 -174 0 -275 191 -178 334 61 90 177 121 271 74z" fill="#5d7285"/>
<path d="M896 504 c-19 -19 -21 -119 -3 -150 32 -55 75 -96 98 -92 37 5 36 42 0 84 -26 30 -31 43 -31 89 0 51 -16 85 -40 85 -5 0 -16 -7 -24 -16z" fill="#5d7285"/>
</g>
</svg>