<svg width="132" height="132" viewBox="0 0 132 132" fill="none" xmlns="http://www.w3.org/2000/svg">
<path d="M121 60.9402V66.0002C120.993 77.8606 117.153 89.4009 110.051 98.9003C102.95 108.4 92.968 115.349 81.5944 118.712C70.2208 122.075 58.0649 121.671 46.9396 117.56C35.8142 113.45 26.3156 105.854 19.8603 95.9041C13.4049 85.9544 10.3388 74.1846 11.1192 62.35C11.8996 50.5153 16.4846 39.25 24.1905 30.2341C31.8964 21.2182 42.3103 14.9348 53.879 12.321C65.4477 9.70723 77.5514 10.9031 88.385 15.7302M121 22.0002L66 77.0552L49.5 60.5552" stroke="url(#paint0_linear_209_383)" strokeWidth="10" strokeLinecap="round" strokeLinejoin="round"/>
<defs>
<linearGradient id="paint0_linear_209_383" x1="66" y1="10.9687" x2="66" y2="120.969" gradientUnits="userSpaceOnUse">
<stop stop-color="#03BB85"/>
</linearGradient>
</defs>
</svg>
