<?xml version="1.0" standalone="no"?>
<!DOCTYPE svg PUBLIC "-//W3C//DTD SVG 20010904//EN"
 "http://www.w3.org/TR/2001/REC-SVG-20010904/DTD/svg10.dtd">
<svg version="1.0" xmlns="http://www.w3.org/2000/svg"
 width="128.000000pt" height="128.000000pt" viewBox="0 0 128.000000 128.000000"
 preserveAspectRatio="xMidYMid meet">

<g transform="translate(0.000000,128.000000) scale(0.100000,-0.100000)"
fill="#000000" stroke="none">
<path d="M531 1035 c-141 -32 -291 -124 -426 -261 -100 -102 -114 -124 -94
-160 22 -42 167 -185 240 -236 122 -87 281 -148 389 -148 107 0 269 61 384
145 115 83 256 229 256 265 0 24 -108 147 -184 210 -194 160 -391 225 -565
185z m257 -101 c99 -33 219 -112 315 -208 42 -43 77 -82 77 -87 0 -20 -160
-166 -236 -215 -211 -138 -401 -138 -609 1 -77 51 -235 195 -235 215 0 14 119
130 186 182 171 132 335 168 502 112z"/>
<path d="M550 877 c-49 -16 -133 -102 -148 -153 -30 -101 -9 -188 63 -259 71
-72 158 -93 259 -63 55 16 138 99 154 154 30 101 9 188 -63 259 -71 71 -166
93 -265 62z m153 -81 c113 -47 139 -197 48 -279 -71 -64 -170 -59 -234 12 -60
67 -62 152 -4 218 53 60 122 78 190 49z"/>
</g>
</svg>
